<svg xmlns="http://www.w3.org/2000/svg" viewBox="0 0 512 512"><defs><style>.cls-1{fill:#333;}.cls-2,.cls-3{fill:#fbfbfb;}.cls-3{font-size:26.04px;font-family:MotivaSans-Black, Motiva Sans;font-weight:800;letter-spacing:0.02em;}.cls-4{letter-spacing:-0.12em;}.cls-5{letter-spacing:0.03em;}</style></defs><g id="Layer_2" data-name="Layer 2"><g id="Teams"><rect class="cls-1" width="512" height="512"/><path class="cls-2" d="M397.16,299.88c109.47-75.89,31.17-170-155.36-139.45C396,139.82,492.51,212.26,397.16,299.88ZM114.84,212.07C5.37,288,83.67,382.17,270.2,351.57,116,372.12,19.44,299.74,114.84,212.07Zm9.9,11.72h21L167,275l23.35-51.16h21.09L160.19,335.05H139.05l16.72-35.79-31-75.47Zm141.61,11.34-12.68,12.68c-5.09-5.14-9.9-7.59-14-7.59a8.74,8.74,0,0,0-5.57,1.54,4.62,4.62,0,0,0-2,3.7,5.46,5.46,0,0,0,1.39,2.88c.77,1,2.89,2.16,6.15,3.69l7.45,3.85c7.92,3.84,13.3,7.83,16.19,12a23.37,23.37,0,0,1,4.32,14.26,22.51,22.51,0,0,1-7.84,18c-5.37,4.8-12.43,7.2-21.37,7.2-11.82,0-21.38-4.6-28.59-13.83l12.59-13.83a27.72,27.72,0,0,0,8.46,6.91c3.22,1.68,6,2.64,8.45,2.64,2.93,0,5.09-.62,6.77-2a5.65,5.65,0,0,0,2.46-4.47c0-3.22-2.94-6.29-8.89-9.37l-7-3.36c-13.21-6.63-19.8-15-19.8-25.07a21.33,21.33,0,0,1,7.31-16.39c5-4.66,11.43-6.82,19.11-6.82a31.36,31.36,0,0,1,15.09,3.36,35.4,35.4,0,0,1,11.91,10ZM287,193.62h20.48v30.17h12.15v17.49H307.43v64.17H287V241.28H276.54V223.79H287V193.62Zm40.79,30.17h20.94l20.57,48.09,20.56-48.09h20.8l-34.73,81.66H362.67l-34.93-81.66Z"/><text class="cls-3" transform="translate(310.29 334.65)">MY<tspan class="cls-4" x="42.28" y="0">-</tspan><tspan class="cls-5" x="51.01" y="0">T</tspan><tspan x="68.45" y="0">V</tspan></text></g></g></svg>