<?xml version="1.0" standalone="no"?>
<!DOCTYPE svg PUBLIC "-//W3C//DTD SVG 20010904//EN"
 "http://www.w3.org/TR/2001/REC-SVG-20010904/DTD/svg10.dtd">
<svg version="1.0" xmlns="http://www.w3.org/2000/svg"
 width="512.000000pt" height="512.000000pt" viewBox="0 0 512.000000 512.000000"
 preserveAspectRatio="xMidYMid meet">
<metadata>
Created by potrace 1.11, written by Peter Selinger 2001-2013
</metadata>
<g transform="translate(0.000000,512.000000) scale(0.100000,-0.100000)"
fill="#000000" stroke="none">
<path d="M0 2560 l0 -2560 2560 0 2560 0 0 2560 0 2560 -2560 0 -2560 0 0
-2560z m3470 995 c517 -64 877 -270 977 -558 23 -64 25 -83 21 -177 -4 -86
-10 -119 -35 -181 -55 -140 -168 -285 -321 -412 -117 -97 -145 -110 -68 -32
187 191 305 419 306 591 1 172 -92 339 -259 466 -94 71 -284 161 -426 202
-302 86 -630 111 -1070 81 -60 -4 -55 -2 30 10 247 37 598 40 845 10z m-963
-31 c-3 -3 -12 -4 -19 -1 -8 3 -5 6 6 6 11 1 17 -2 13 -5z m571 -491 l3 -153
60 0 60 0 -3 -87 -3 -88 -57 -3 -58 -3 -2 -317 -3 -317 -102 -3 -103 -3 0 320
0 320 -52 3 -53 3 -3 88 -3 87 56 0 55 0 0 155 0 156 103 -3 102 -3 3 -152z
m-2000 -105 c-193 -197 -308 -422 -308 -603 0 -340 361 -618 926 -714 239 -40
498 -48 829 -26 63 4 61 3 -25 -10 -245 -36 -572 -42 -815 -14 -544 61 -914
269 -1015 569 -32 96 -25 244 17 351 43 109 113 209 223 320 76 77 221 199
236 199 2 0 -29 -33 -68 -72z m1436 -44 c27 -9 69 -37 99 -64 l52 -49 -64 -65
-64 -65 -37 30 c-64 52 -133 58 -169 16 -23 -28 5 -54 119 -112 138 -71 193
-122 216 -201 21 -72 14 -141 -21 -200 -50 -86 -133 -126 -260 -127 -100 0
-171 25 -239 86 -57 50 -57 48 22 131 l54 56 38 -30 c48 -38 100 -60 143 -60
64 0 100 67 58 109 -10 10 -60 40 -109 66 -158 81 -222 157 -222 263 0 93 48
168 135 208 61 29 176 33 249 8z m-951 -251 c56 -134 104 -243 107 -243 4 0
57 109 117 243 l111 242 107 3 c100 2 107 1 101 -15 -4 -10 -118 -260 -254
-555 l-247 -538 -107 0 c-107 0 -108 0 -99 23 5 12 41 90 80 172 39 83 71 156
71 163 0 7 -67 177 -150 378 -82 201 -150 367 -150 370 0 3 48 3 107 2 l106
-3 100 -242z m2026 15 c53 -125 99 -229 102 -232 2 -2 49 101 104 230 l100
234 108 0 c99 0 107 -1 99 -17 -6 -10 -85 -195 -177 -411 l-167 -393 -67 3
-66 3 -172 400 c-94 220 -172 404 -172 408 -1 4 47 6 105 5 l106 -3 97 -227z
m-393 -750 l27 -53 25 53 c20 40 31 52 49 52 22 0 23 -3 23 -90 0 -89 0 -90
-25 -90 -22 0 -25 4 -26 38 l0 37 -16 -32 c-22 -44 -47 -42 -66 5 l-15 37 -1
-42 c-1 -39 -3 -43 -26 -43 -25 0 -25 1 -25 90 0 89 0 90 25 90 20 0 30 -10
51 -52z m225 20 l13 -31 15 31 c11 25 21 32 44 32 l28 0 -30 -54 c-19 -33 -31
-68 -31 -90 0 -32 -3 -36 -25 -36 -22 0 -25 4 -25 35 0 21 -12 54 -30 83 -16
27 -30 52 -30 56 0 3 13 6 29 6 23 0 31 -6 42 -32z m349 13 c0 -13 -8 -21 -22
-23 -21 -3 -23 -9 -26 -70 -3 -65 -4 -68 -27 -68 -24 0 -25 2 -25 70 0 68 -1
70 -25 70 -18 0 -25 5 -25 20 0 18 7 20 75 20 67 0 75 -2 75 -19z m87 -26 c24
-72 25 -72 42 -15 15 47 21 55 44 58 15 2 27 0 27 -4 0 -4 -14 -45 -32 -90
-28 -76 -34 -84 -57 -84 -24 0 -29 8 -55 78 -16 42 -31 83 -34 90 -3 10 3 13
23 10 23 -2 31 -11 42 -43z m-227 -55 c0 -17 -7 -20 -45 -20 -38 0 -45 3 -45
20 0 17 7 20 45 20 38 0 45 -3 45 -20z m-993 -256 c-3 -3 -12 -4 -19 -1 -8 3
-5 6 6 6 11 1 17 -2 13 -5z"/>
</g>
</svg>
