<svg xmlns="http://www.w3.org/2000/svg" viewBox="0 0 117.5 62.37"><g id="Layer_2" data-name="Layer 2"><g id="Main_YSTV_Mono" data-name="Main YSTV Mono"><path class="cls-1" d="M102.12,44.67C135.76,21.35,111.7-7.58,54.38,1.82c47.37-6.33,77,15.92,47.74,42.85Zm-86.74-27C-18.26,41,5.8,70,63.11,60.55c-47.38,6.31-77-15.93-47.73-42.86Zm3,3.6h6.46L31.41,37l7.17-15.72h6.48L29.31,55.47H22.82l5.13-11L18.42,21.29Zm43.51,3.48L58,28.67c-1.56-1.58-3-2.34-4.29-2.34a2.7,2.7,0,0,0-1.72.48,1.45,1.45,0,0,0-.6,1.13,1.67,1.67,0,0,0,.43.89A6.15,6.15,0,0,0,53.74,30L56,31.15a12.63,12.63,0,0,1,5,3.69,7.16,7.16,0,0,1,1.33,4.38,7,7,0,0,1-2.41,5.53A9.44,9.44,0,0,1,53.35,47a10.61,10.61,0,0,1-8.78-4.25l3.87-4.25A8.35,8.35,0,0,0,51,40.59a5.76,5.76,0,0,0,2.59.81,3.13,3.13,0,0,0,2.08-.61,1.74,1.74,0,0,0,.76-1.38c0-1-.9-1.93-2.73-2.88l-2.14-1c-4.06-2-6.08-4.62-6.08-7.7a6.57,6.57,0,0,1,2.24-5,8.26,8.26,0,0,1,5.87-2.09,9.53,9.53,0,0,1,4.64,1,10.94,10.94,0,0,1,3.66,3.07ZM68.26,12h6.29v9.27h3.73v5.37H74.55V46.38H68.26V26.66h-3.2V21.29h3.2V12Zm12.53,9.27h6.44l6.31,14.77,6.32-14.77h6.39L95.58,46.38H91.52L80.79,21.29Z"/></g></g></svg>